<mxfile host="app.diagrams.net" modified="2020-12-26T06:26:11.581Z" agent="5.0 (Windows)" etag="PUIugpehHcoWXE4YQ5HT" version="14.0.5" type="github">
  <diagram id="C5RBs43oDa-KdzZeNtuy" name="Page-1">
    <mxGraphModel dx="2067" dy="1813" grid="1" gridSize="10" guides="1" tooltips="1" connect="1" arrows="1" fold="1" page="1" pageScale="1" pageWidth="827" pageHeight="1169" math="0" shadow="0">
      <root>
        <mxCell id="WIyWlLk6GJQsqaUBKTNV-0" />
        <mxCell id="WIyWlLk6GJQsqaUBKTNV-1" parent="WIyWlLk6GJQsqaUBKTNV-0" />
        <mxCell id="PK4laHjmgvUQUqiyzo_M-3" value="&lt;font style=&quot;font-size: 18px&quot;&gt;财税管理&lt;/font&gt;" style="rounded=1;whiteSpace=wrap;html=1;fillColor=#dae8fc;strokeColor=#6c8ebf;" vertex="1" parent="WIyWlLk6GJQsqaUBKTNV-1">
          <mxGeometry x="-263" y="130" width="93" height="50" as="geometry" />
        </mxCell>
        <mxCell id="PK4laHjmgvUQUqiyzo_M-4" value="&lt;p&gt;&lt;font style=&quot;font-size: 14px&quot;&gt;普通发票&lt;/font&gt;&lt;/p&gt;&lt;p&gt;&lt;font style=&quot;font-size: 14px&quot;&gt;专用发票&lt;/font&gt;&lt;/p&gt;&lt;p&gt;&lt;font style=&quot;font-size: 14px&quot;&gt;发票查验&lt;/font&gt;&lt;/p&gt;&lt;p&gt;&lt;font style=&quot;font-size: 14px&quot;&gt;勾选认证&lt;/font&gt;&lt;/p&gt;&lt;p&gt;&lt;font style=&quot;font-size: 14px&quot;&gt;手工填开&lt;/font&gt;&lt;/p&gt;&lt;p&gt;&lt;font style=&quot;font-size: 14px&quot;&gt;批量开票&lt;/font&gt;&lt;/p&gt;" style="rounded=1;whiteSpace=wrap;html=1;fillColor=#fff2cc;strokeColor=#d6b656;" vertex="1" parent="WIyWlLk6GJQsqaUBKTNV-1">
          <mxGeometry x="-263" y="198" width="93" height="162" as="geometry" />
        </mxCell>
        <mxCell id="PK4laHjmgvUQUqiyzo_M-9" value="&lt;font style=&quot;font-size: 18px&quot;&gt;税控管理&lt;/font&gt;" style="rounded=1;whiteSpace=wrap;html=1;fillColor=#dae8fc;strokeColor=#6c8ebf;" vertex="1" parent="WIyWlLk6GJQsqaUBKTNV-1">
          <mxGeometry x="-150" y="130" width="93" height="50" as="geometry" />
        </mxCell>
        <mxCell id="PK4laHjmgvUQUqiyzo_M-10" value="&lt;p&gt;&lt;font style=&quot;font-size: 14px&quot;&gt;票源申领&lt;/font&gt;&lt;/p&gt;&lt;p&gt;&lt;font style=&quot;font-size: 14px&quot;&gt;票源分发&lt;/font&gt;&lt;/p&gt;&lt;p&gt;&lt;font style=&quot;font-size: 14px&quot;&gt;票源导入&lt;/font&gt;&lt;/p&gt;&lt;p&gt;&lt;font style=&quot;font-size: 14px&quot;&gt;发票开具&lt;/font&gt;&lt;/p&gt;&lt;p&gt;&lt;font style=&quot;font-size: 14px&quot;&gt;发票上传&lt;/font&gt;&lt;/p&gt;&lt;p&gt;&lt;font style=&quot;font-size: 14px&quot;&gt;汇总抄报&lt;/font&gt;&lt;/p&gt;" style="rounded=1;whiteSpace=wrap;html=1;fillColor=#fff2cc;strokeColor=#d6b656;" vertex="1" parent="WIyWlLk6GJQsqaUBKTNV-1">
          <mxGeometry x="-150" y="198" width="93" height="162" as="geometry" />
        </mxCell>
        <mxCell id="PK4laHjmgvUQUqiyzo_M-12" value="&lt;font style=&quot;font-size: 18px&quot;&gt;基础管理&lt;/font&gt;" style="rounded=1;whiteSpace=wrap;html=1;fillColor=#dae8fc;strokeColor=#6c8ebf;" vertex="1" parent="WIyWlLk6GJQsqaUBKTNV-1">
          <mxGeometry x="70" y="130" width="93" height="50" as="geometry" />
        </mxCell>
        <mxCell id="PK4laHjmgvUQUqiyzo_M-13" value="&lt;p&gt;&lt;font style=&quot;font-size: 14px&quot;&gt;开票信息&lt;/font&gt;&lt;/p&gt;&lt;p&gt;&lt;font style=&quot;font-size: 14px&quot;&gt;企业信息&lt;/font&gt;&lt;/p&gt;&lt;p&gt;&lt;font style=&quot;font-size: 14px&quot;&gt;货品信息&lt;/font&gt;&lt;/p&gt;&lt;p&gt;&lt;font style=&quot;font-size: 14px&quot;&gt;权限信息&lt;/font&gt;&lt;/p&gt;&lt;p&gt;&lt;font style=&quot;font-size: 14px&quot;&gt;邮件短信&lt;/font&gt;&lt;/p&gt;&lt;p&gt;&lt;font style=&quot;font-size: 14px&quot;&gt;操作日志&lt;/font&gt;&lt;/p&gt;" style="rounded=1;whiteSpace=wrap;html=1;fillColor=#fff2cc;strokeColor=#d6b656;" vertex="1" parent="WIyWlLk6GJQsqaUBKTNV-1">
          <mxGeometry x="70" y="203" width="93" height="157" as="geometry" />
        </mxCell>
        <mxCell id="PK4laHjmgvUQUqiyzo_M-14" value="&lt;font style=&quot;font-size: 18px&quot;&gt;文件管理&lt;/font&gt;" style="rounded=1;whiteSpace=wrap;html=1;fillColor=#dae8fc;strokeColor=#6c8ebf;" vertex="1" parent="WIyWlLk6GJQsqaUBKTNV-1">
          <mxGeometry x="-39.5" y="130" width="93" height="50" as="geometry" />
        </mxCell>
        <mxCell id="PK4laHjmgvUQUqiyzo_M-15" value="&lt;p&gt;&lt;font style=&quot;font-size: 14px&quot;&gt;OFD版式文件&lt;/font&gt;&lt;/p&gt;&lt;p&gt;&lt;font style=&quot;font-size: 14px&quot;&gt;PDF版式文件&lt;/font&gt;&lt;/p&gt;&lt;p&gt;&lt;font style=&quot;font-size: 14px&quot;&gt;image文件&lt;/font&gt;&lt;/p&gt;&lt;p&gt;&lt;font style=&quot;font-size: 14px&quot;&gt;文件上传&lt;/font&gt;&lt;/p&gt;&lt;p&gt;&lt;font style=&quot;font-size: 14px&quot;&gt;文件下载&lt;/font&gt;&lt;/p&gt;&lt;p&gt;&lt;font style=&quot;font-size: 14px&quot;&gt;文件管理&lt;/font&gt;&lt;/p&gt;" style="rounded=1;whiteSpace=wrap;html=1;fillColor=#fff2cc;strokeColor=#d6b656;" vertex="1" parent="WIyWlLk6GJQsqaUBKTNV-1">
          <mxGeometry x="-39.5" y="198" width="93" height="162" as="geometry" />
        </mxCell>
        <mxCell id="PK4laHjmgvUQUqiyzo_M-20" value="" style="rounded=1;whiteSpace=wrap;html=1;fillColor=#f8cecc;strokeColor=#b85450;" vertex="1" parent="WIyWlLk6GJQsqaUBKTNV-1">
          <mxGeometry x="-440" y="380" width="770" height="70" as="geometry" />
        </mxCell>
        <mxCell id="PK4laHjmgvUQUqiyzo_M-22" value="MYSQL" style="shape=cylinder3;whiteSpace=wrap;html=1;boundedLbl=1;backgroundOutline=1;size=15;fillColor=#ffe6cc;strokeColor=#d79b00;" vertex="1" parent="WIyWlLk6GJQsqaUBKTNV-1">
          <mxGeometry x="-392.5" y="385" width="60" height="60" as="geometry" />
        </mxCell>
        <mxCell id="PK4laHjmgvUQUqiyzo_M-24" value="REDIS" style="shape=cylinder3;whiteSpace=wrap;html=1;boundedLbl=1;backgroundOutline=1;size=15;fillColor=#ffe6cc;strokeColor=#d79b00;" vertex="1" parent="WIyWlLk6GJQsqaUBKTNV-1">
          <mxGeometry x="-191" y="385" width="60" height="60" as="geometry" />
        </mxCell>
        <mxCell id="PK4laHjmgvUQUqiyzo_M-28" value="ES" style="shape=cylinder3;whiteSpace=wrap;html=1;boundedLbl=1;backgroundOutline=1;size=15;fillColor=#ffe6cc;strokeColor=#d79b00;" vertex="1" parent="WIyWlLk6GJQsqaUBKTNV-1">
          <mxGeometry x="202" y="385" width="60" height="60" as="geometry" />
        </mxCell>
        <mxCell id="PK4laHjmgvUQUqiyzo_M-30" value="HBASE" style="shape=cylinder3;whiteSpace=wrap;html=1;boundedLbl=1;backgroundOutline=1;size=15;fillColor=#ffe6cc;strokeColor=#d79b00;" vertex="1" parent="WIyWlLk6GJQsqaUBKTNV-1">
          <mxGeometry x="-0.5" y="385" width="60" height="60" as="geometry" />
        </mxCell>
        <mxCell id="PK4laHjmgvUQUqiyzo_M-32" value="&lt;font style=&quot;font-size: 18px&quot;&gt;网关&lt;/font&gt;" style="rounded=1;whiteSpace=wrap;html=1;fillColor=#fff2cc;strokeColor=#d6b656;" vertex="1" parent="WIyWlLk6GJQsqaUBKTNV-1">
          <mxGeometry x="-446" y="60" width="780" height="60" as="geometry" />
        </mxCell>
        <mxCell id="PK4laHjmgvUQUqiyzo_M-36" value="&lt;div&gt;&lt;font style=&quot;font-size: 18px&quot;&gt;微服务&lt;/font&gt;&lt;/div&gt;&lt;div&gt;&lt;font size=&quot;3&quot;&gt;框架&lt;br&gt;&lt;/font&gt;&lt;/div&gt;" style="rounded=1;whiteSpace=wrap;html=1;fillColor=#dae8fc;strokeColor=#6c8ebf;" vertex="1" parent="WIyWlLk6GJQsqaUBKTNV-1">
          <mxGeometry x="-552" y="60" width="90" height="300" as="geometry" />
        </mxCell>
        <mxCell id="PK4laHjmgvUQUqiyzo_M-37" value="&lt;font style=&quot;font-size: 18px&quot;&gt;负载均衡&lt;/font&gt;" style="rounded=1;whiteSpace=wrap;html=1;fillColor=#f8cecc;strokeColor=#b85450;" vertex="1" parent="WIyWlLk6GJQsqaUBKTNV-1">
          <mxGeometry x="-443" y="131" width="83" height="50" as="geometry" />
        </mxCell>
        <mxCell id="PK4laHjmgvUQUqiyzo_M-42" value="&lt;div&gt;&lt;font style=&quot;font-size: 18px&quot;&gt;服务&lt;/font&gt;&lt;/div&gt;&lt;div&gt;&lt;font size=&quot;3&quot;&gt;治理&lt;/font&gt;&lt;/div&gt;" style="rounded=1;whiteSpace=wrap;html=1;fillColor=#d5e8d4;strokeColor=#82b366;" vertex="1" parent="WIyWlLk6GJQsqaUBKTNV-1">
          <mxGeometry x="-338" y="130" width="53" height="230" as="geometry" />
        </mxCell>
        <mxCell id="PK4laHjmgvUQUqiyzo_M-43" value="&lt;font style=&quot;font-size: 18px&quot;&gt;动态代理&lt;/font&gt;" style="rounded=1;whiteSpace=wrap;html=1;fillColor=#ffe6cc;strokeColor=#d79b00;" vertex="1" parent="WIyWlLk6GJQsqaUBKTNV-1">
          <mxGeometry x="-443" y="190" width="83" height="50" as="geometry" />
        </mxCell>
        <mxCell id="PK4laHjmgvUQUqiyzo_M-44" value="&lt;font style=&quot;font-size: 18px&quot;&gt;配置管理&lt;/font&gt;" style="rounded=1;whiteSpace=wrap;html=1;fillColor=#fff2cc;strokeColor=#d6b656;" vertex="1" parent="WIyWlLk6GJQsqaUBKTNV-1">
          <mxGeometry x="-443" y="250" width="83" height="50" as="geometry" />
        </mxCell>
        <mxCell id="PK4laHjmgvUQUqiyzo_M-45" value="&lt;font style=&quot;font-size: 18px&quot;&gt;容错管理&lt;/font&gt;" style="rounded=1;whiteSpace=wrap;html=1;fillColor=#e1d5e7;strokeColor=#9673a6;" vertex="1" parent="WIyWlLk6GJQsqaUBKTNV-1">
          <mxGeometry x="-443" y="311" width="83" height="50" as="geometry" />
        </mxCell>
        <mxCell id="PK4laHjmgvUQUqiyzo_M-48" value="&lt;font style=&quot;font-size: 18px&quot;&gt;硬件负载 + nginx&lt;/font&gt;" style="rounded=1;whiteSpace=wrap;html=1;fillColor=#f5f5f5;strokeColor=#666666;fontColor=#333333;" vertex="1" parent="WIyWlLk6GJQsqaUBKTNV-1">
          <mxGeometry x="-556" y="-12" width="886" height="60" as="geometry" />
        </mxCell>
        <mxCell id="PK4laHjmgvUQUqiyzo_M-49" value="&lt;font style=&quot;font-size: 18px&quot;&gt;前端服务&lt;/font&gt;" style="rounded=1;whiteSpace=wrap;html=1;fillColor=#d5e8d4;strokeColor=#82b366;" vertex="1" parent="WIyWlLk6GJQsqaUBKTNV-1">
          <mxGeometry x="-557" y="-82" width="887" height="60" as="geometry" />
        </mxCell>
        <mxCell id="PK4laHjmgvUQUqiyzo_M-50" value="&lt;div&gt;&lt;font style=&quot;font-size: 18px&quot;&gt;服务&lt;/font&gt;&lt;/div&gt;&lt;div&gt;&lt;font size=&quot;3&quot;&gt;通讯&lt;br&gt;&lt;/font&gt;&lt;/div&gt;" style="rounded=1;whiteSpace=wrap;html=1;fillColor=#d5e8d4;strokeColor=#82b366;" vertex="1" parent="WIyWlLk6GJQsqaUBKTNV-1">
          <mxGeometry x="177" y="130" width="53" height="230" as="geometry" />
        </mxCell>
        <mxCell id="PK4laHjmgvUQUqiyzo_M-52" value="&lt;font style=&quot;font-size: 18px&quot;&gt;RPC&lt;/font&gt;" style="rounded=1;whiteSpace=wrap;html=1;fillColor=#f8cecc;strokeColor=#b85450;" vertex="1" parent="WIyWlLk6GJQsqaUBKTNV-1">
          <mxGeometry x="250" y="130" width="83" height="49" as="geometry" />
        </mxCell>
        <mxCell id="PK4laHjmgvUQUqiyzo_M-53" value="&lt;font style=&quot;font-size: 18px&quot;&gt;MQ&lt;/font&gt;" style="rounded=1;whiteSpace=wrap;html=1;fillColor=#ffe6cc;strokeColor=#d79b00;" vertex="1" parent="WIyWlLk6GJQsqaUBKTNV-1">
          <mxGeometry x="250" y="189" width="83" height="50" as="geometry" />
        </mxCell>
        <mxCell id="PK4laHjmgvUQUqiyzo_M-54" value="&lt;font style=&quot;font-size: 18px&quot;&gt;REST&lt;/font&gt;" style="rounded=1;whiteSpace=wrap;html=1;fillColor=#fff2cc;strokeColor=#d6b656;" vertex="1" parent="WIyWlLk6GJQsqaUBKTNV-1">
          <mxGeometry x="250" y="249" width="83" height="50" as="geometry" />
        </mxCell>
        <mxCell id="PK4laHjmgvUQUqiyzo_M-55" value="&lt;font style=&quot;font-size: 24px&quot;&gt;......&lt;/font&gt;" style="rounded=1;whiteSpace=wrap;html=1;fillColor=#e1d5e7;strokeColor=#9673a6;" vertex="1" parent="WIyWlLk6GJQsqaUBKTNV-1">
          <mxGeometry x="250" y="310" width="83" height="50" as="geometry" />
        </mxCell>
        <mxCell id="PK4laHjmgvUQUqiyzo_M-57" value="&lt;font style=&quot;font-size: 18px&quot;&gt;软件资源&lt;/font&gt;" style="rounded=1;whiteSpace=wrap;html=1;fillColor=#ffe6cc;strokeColor=#d79b00;" vertex="1" parent="WIyWlLk6GJQsqaUBKTNV-1">
          <mxGeometry x="-430" y="470" width="150" height="50" as="geometry" />
        </mxCell>
        <mxCell id="PK4laHjmgvUQUqiyzo_M-58" value="&lt;font style=&quot;font-size: 18px&quot;&gt;硬件资源&lt;/font&gt;" style="rounded=1;whiteSpace=wrap;html=1;fillColor=#fff2cc;strokeColor=#d6b656;" vertex="1" parent="WIyWlLk6GJQsqaUBKTNV-1">
          <mxGeometry x="-236" y="470" width="151" height="50" as="geometry" />
        </mxCell>
        <mxCell id="PK4laHjmgvUQUqiyzo_M-59" value="&lt;font style=&quot;font-size: 18px&quot;&gt;网络资源&lt;/font&gt;" style="rounded=1;whiteSpace=wrap;html=1;fillColor=#f8cecc;strokeColor=#b85450;" vertex="1" parent="WIyWlLk6GJQsqaUBKTNV-1">
          <mxGeometry x="-38" y="470" width="153" height="50" as="geometry" />
        </mxCell>
        <mxCell id="PK4laHjmgvUQUqiyzo_M-60" value="&lt;font style=&quot;font-size: 18px&quot;&gt;安全防护&lt;/font&gt;" style="rounded=1;whiteSpace=wrap;html=1;fillColor=#e1d5e7;strokeColor=#9673a6;" vertex="1" parent="WIyWlLk6GJQsqaUBKTNV-1">
          <mxGeometry x="160" y="470" width="165.5" height="50" as="geometry" />
        </mxCell>
        <mxCell id="PK4laHjmgvUQUqiyzo_M-61" value="&lt;font style=&quot;font-size: 18px&quot;&gt;基础层&lt;/font&gt;" style="rounded=1;whiteSpace=wrap;html=1;fillColor=#dae8fc;strokeColor=#6c8ebf;" vertex="1" parent="WIyWlLk6GJQsqaUBKTNV-1">
          <mxGeometry x="-551.5" y="470" width="91.5" height="50" as="geometry" />
        </mxCell>
        <mxCell id="PK4laHjmgvUQUqiyzo_M-62" value="&lt;font style=&quot;font-size: 18px&quot;&gt;数据层&lt;/font&gt;" style="rounded=1;whiteSpace=wrap;html=1;fillColor=#dae8fc;strokeColor=#6c8ebf;" vertex="1" parent="WIyWlLk6GJQsqaUBKTNV-1">
          <mxGeometry x="-551.5" y="385" width="91.5" height="60" as="geometry" />
        </mxCell>
      </root>
    </mxGraphModel>
  </diagram>
</mxfile>
